<svg xmlns="http://www.w3.org/2000/svg" xmlns:xlink="http://www.w3.org/1999/xlink" width="1440" height="4838" viewBox="0 0 1440 4838">
    <defs>
        <filter id="9jw9wn87xa">
            <feColorMatrix in="SourceGraphic" values="0 0 0 0 0.050980 0 0 0 0 0.113725 0 0 0 0 0.164706 0 0 0 1.000000 0"/>
        </filter>
        <path id="trk56r9xob" d="M0 0H1440V4838H0z"/>
    </defs>
    <g fill="none" fill-rule="evenodd">
        <g filter="url(#9jw9wn87xa)">
            <mask id="yhrjloki2c" fill="#fff">
                <use xlink:href="#trk56r9xob"/>
            </mask>
            <path fill="#00817D" d="M445.278 4539.74c13.346 3.267 26.817 6.308 39.803 10.708 26.561 9.002 54.153 20.28 56.929 52.177 2.906 33.42-24.021 46.82-50.337 56.844-25.673 9.778-52.105 17.556-78.188 26.258-58.946 19.667-116.373 43.648-167.204 79.26-87.83 61.537-108.28 127.24-74.195 222.435 60.596 169.239 30.944 292.834-92.482 385.442-129.712 97.326-284.074 97.99-421.481 1.477-14.032-9.855-26.88-21.391-40.278-32.149-251.084-200.685-228.785-534.782 47.832-719.55 121.26-80.993 259.781-106.894 401.188-117.463 127.48-9.53 254.008 4.098 378.413 34.56zm715.7-552.395c6.257 18.169 11.643 36.638 16.94 55.137l2.976 10.407c2.316 8.094 4.643 16.184 7.047 24.249 20.18 67.688 45.314 133.81 83.908 192.866 66.686 102.04 140.58 127.686 249.98 92.457 194.495-62.63 333.82-24.405 434.5 119.217 105.81 150.936 100.897 326.33-13.793 478.891-11.713 15.58-25.291 29.753-38.004 44.58-237.213 277.885-615.955 240.287-815.712-80.756-87.562-140.734-111.904-299.058-118.72-460.095-6.148-145.178 13.979-288.423 53.153-428.639.73-2.616 1.454-5.237 2.179-7.858l1.09-3.932c3.098-11.138 6.31-22.252 10.358-33.035 11.203-29.847 25.028-60.78 61.367-62.762 38.076-2.075 52.31 29.009 62.732 59.273zm-594.628-913.3c31.793 21.051 24.673 54.49 14.98 84.995-6.546 20.603-14.203 40.853-21.847 61.107l-2.546 6.752c-2.543 6.753-5.07 13.512-7.54 20.288-24.189 66.362-43.466 134.422-47.727 204.843-7.36 121.674 36.641 186.341 145.456 223.34 193.453 65.775 282.461 179.575 277.573 354.901-5.135 184.26-113.718 322.086-296.78 376.096-11.218 3.31-22.671 5.812-34.154 8.216l-4.594.959c-6.126 1.275-12.252 2.549-18.348 3.93-356.16 81.487-637.68-174.648-606.455-551.473 13.691-165.184 88.614-306.765 179.22-440.07 81.682-120.178 183.295-223.129 298.39-312.283 12.346-9.566 24.58-19.403 37.678-27.845 26.797-17.268 56.348-33.845 86.694-13.756zm1180.553 323.309c32.877 162.457.37 319.307-49.506 472.579-44.962 138.176-113.867 265.363-199.562 383.055-9.193 12.627-18.201 25.483-28.429 37.24-20.924 24.052-44.686 48.206-79.427 37.368-36.4-11.359-38.88-45.458-38.07-77.456.79-31.216 4.01-62.369 6.11-93.552 4.74-70.475 4.29-141.21-11.238-210.03-26.834-118.907-87.111-168.754-201.925-173.968-204.12-9.269-321.31-93.76-365.468-263.507-46.408-178.392 19.474-341.017 180.24-443.894 16.415-10.506 34.089-19.042 51.182-28.493 319.35-177.497 661.088-9.944 736.093 360.658zM182.35 1835.045c31.793 21.051 24.673 54.49 14.98 84.995-6.546 20.603-14.203 40.853-21.847 61.107l-2.546 6.752c-2.543 6.753-5.07 13.512-7.54 20.288-24.189 66.362-43.466 134.422-47.727 204.843-7.36 121.674 36.641 186.341 145.456 223.34 193.453 65.775 282.461 179.575 277.573 354.901-5.135 184.26-113.718 322.086-296.78 376.096-11.218 3.31-22.671 5.812-34.154 8.216l-4.594.959c-6.126 1.275-12.252 2.549-18.348 3.93-356.16 81.487-637.68-174.648-606.455-551.473 13.691-165.184 88.614-306.765 179.22-440.07 81.682-120.178 183.295-223.129 298.39-312.283 12.346-9.566 24.58-19.403 37.678-27.845 26.797-17.268 56.348-33.845 86.694-13.756zm1313.236 502.3c-41.667 160.427-139.643 287.152-251.66 403.048-100.985 104.482-218.67 188.591-347.286 256.806-13.798 7.32-27.53 14.925-41.877 21.01-29.35 12.443-61.295 23.736-87.769-1.234-27.737-26.166-15.017-57.9-.263-86.306 9.412-18.119 19.745-35.757 30.12-53.375l3.662-6.217c4.271-7.255 8.532-14.516 12.72-21.814 35.154-61.264 65.76-125.038 81.97-193.699 28.008-118.637-4.317-189.863-105.226-244.88-179.398-97.81-247.69-225.125-212.966-397.049 36.491-180.682 166.995-297.967 356.588-319.958 19.36-2.246 38.987-2.17 58.493-3.172 364.84-19.539 598.542 280.864 503.494 646.84zm-717.989-1191.61c-35.795 137.817-119.961 246.682-216.19 346.243-86.752 89.755-187.85 162.01-298.337 220.61l-1.778.945-3.555 1.896c-10.072 5.377-20.167 10.765-30.642 15.208-25.213 10.69-52.656 20.39-75.4-1.06-23.827-22.478-12.9-49.74-.225-74.142 8.244-15.87 17.311-31.31 26.4-46.742l3.407-5.787c3.405-5.788 6.8-11.582 10.14-17.404 30.2-52.629 56.492-107.414 70.418-166.397 24.06-101.917-3.709-163.103-90.395-210.366-154.113-84.024-212.78-193.396-182.95-341.087 31.348-155.216 143.457-255.97 306.328-274.862 16.633-1.93 33.494-1.864 50.25-2.726 313.418-16.785 514.181 241.28 432.53 555.672zm200.519-583.517c16.147 22.225 30.563 45.706 45.78 68.608 34.387 51.757 72.542 100.922 120.2 140.68 82.352 68.695 151.116 71.265 234.095 13.487 147.523-102.72 274.572-106.397 396.216-11.462 127.843 99.769 168.824 248.594 111.575 406.448-3.56 9.812-7.833 19.363-12.186 28.887l-1.868 4.08c-2.18 4.76-4.358 9.522-6.453 14.313-128.094 294.805-456.407 360.591-707.044 141.874-109.867-95.88-171.069-222.818-218.226-356.55-42.513-120.56-62.425-246.25-65.534-374.293l-.049-1.963-.104-3.927c-.317-11.786-.644-23.6.088-35.327 1.748-27.993 5.424-57.573 35.486-68.587 31.5-11.54 51.471 10.95 68.024 33.732zM125.278 421.559c13.346 3.268 26.817 6.309 39.803 10.709 26.561 9.002 54.153 20.28 56.929 52.177 2.906 33.42-24.021 46.82-50.337 56.844-25.673 9.778-52.105 17.556-78.188 26.258-58.946 19.667-116.373 43.648-167.204 79.26-87.83 61.537-108.28 127.24-74.195 222.435 60.596 169.239 30.944 292.834-92.482 385.442-129.712 97.326-284.074 97.99-421.481 1.477-14.032-9.855-26.88-21.391-40.278-32.149-251.084-200.685-228.785-534.782 47.832-719.55C-533.063 423.47-394.542 397.568-253.135 387c127.48-9.53 254.008 4.098 378.413 34.56zm511.467-690.368c77.34 123.622 99.097 262.854 105.444 404.513 5.722 127.708-11.673 253.773-45.834 377.213-.349 1.261-.696 2.524-1.042 3.787l-1.038 3.79c-2.944 10.742-5.937 21.488-9.81 31.889-9.792 26.282-21.887 53.525-53.852 55.348-33.493 1.908-46.084-25.407-55.318-52.01-9.008-25.953-15.994-52.605-23.913-78.937-17.902-59.505-40.157-117.622-74.238-169.494-58.89-89.625-123.953-112.026-220.123-80.798-170.97 55.521-293.627 22.195-382.511-103.938-93.414-132.558-89.473-286.871 11.097-421.338 6.697-8.956 14.094-17.387 21.523-25.794l2.972-3.363c2.97-3.364 5.931-6.735 8.84-10.145 208.087-244.985 541.37-212.729 717.803 69.277zm302.723-193.016l.897.007c26.735.482 40.267 23.715 51.035 46.657 7.78 16.58 14.7 33.562 21.598 50.555l2.587 6.373c2.59 6.37 5.191 12.737 7.848 19.076 24.023 57.31 52.23 112.782 91.547 160.807 44.157 53.936 87.94 79.354 138.549 79.249l2.34-.023c26.583-.466 55.064-7.901 86.472-21.879 64.05-28.504 122.205-42.8 175.346-42.745l4.078.032c81.36 1.217 150.908 36.41 211.858 106.101 106.757 122.068 118.967 275.948 33.003 420.19-8.778 14.73-19.32 28.404-29.046 42.57-88.857 130.043-214.566 197.027-343.79 200.7l-7.915.145c-131.992 1.11-266.935-63.705-369.407-194.715-89.837-114.86-126.029-251.056-147.147-391.276-19.038-126.411-14.916-253.603 6.155-379.937 2.261-13.555 4.285-27.216 7.702-40.493 6.99-27.16 16.172-55.519 47.772-60.673 2.98-.486 5.816-.719 8.518-.721z" mask="url(#yhrjloki2c)"/>
        </g>
    </g>
</svg>
