<svg xmlns="http://www.w3.org/2000/svg" xmlns:xlink="http://www.w3.org/1999/xlink" width="1444" height="4838" viewBox="0 0 1444 4838">
    <defs>
        <filter id="8mf3ab69gb">
            <feColorMatrix in="SourceGraphic" values="0 0 0 0 0.000000 0 0 0 0 0.505882 0 0 0 0 0.490196 0 0 0 1.000000 0"/>
        </filter>
        <filter id="kqmkcc7o8d">
            <feColorMatrix in="SourceGraphic" values="0 0 0 0 0.000000 0 0 0 0 0.505882 0 0 0 0 0.490196 0 0 0 1.000000 0"/>
        </filter>
        <filter id="12u5jehyde">
            <feColorMatrix in="SourceGraphic" values="0 0 0 0 0.000000 0 0 0 0 0.505882 0 0 0 0 0.490196 0 0 0 1.000000 0"/>
        </filter>
        <path id="wwlxndfrya" d="M0.078 0.798H1443.078V4837.798H0.078z"/>
    </defs>
    <g fill="none" fill-rule="evenodd">
        <g>
            <mask id="ateibj9icc" fill="#fff">
                <use xlink:href="#wwlxndfrya"/>
            </mask>
            <g filter="url(#8mf3ab69gb)" opacity=".1">
                <g mask="url(#ateibj9icc)">
                    <g stroke="#0D1D2A" stroke-width="6">
                        <path d="M493.552 1.135c424.842-22.752 696.98 327.057 586.299 753.22-48.52 186.811-162.61 334.38-293.05 469.335-117.592 121.665-254.632 219.606-404.4 299.041-16.066 8.521-32.057 17.38-48.764 24.464-34.176 14.491-71.375 27.64-102.203-1.437-32.298-30.47-17.487-67.422-.306-100.499 16.76-32.269 36.035-63.228 54.15-94.795 40.936-71.339 76.573-145.602 95.45-225.556 32.616-138.147-5.027-221.086-122.531-285.152C49.295 725.86-30.228 577.607 10.206 377.408 52.699 167.011 204.665 30.438 425.439 4.83c22.545-2.615 45.4-2.527 68.113-3.694z" transform="translate(-37.922 2164.618)"/>
                        <path d="M743.552 1001.135c424.842-22.752 696.98 327.057 586.299 753.22-48.52 186.811-162.61 334.38-293.05 469.335-117.592 121.665-254.632 219.606-404.4 299.041-16.066 8.521-32.057 17.38-48.764 24.464-34.176 14.491-71.375 27.64-102.203-1.437-32.298-30.47-17.487-67.422-.306-100.499 16.76-32.269 36.035-63.228 54.15-94.795 40.936-71.339 76.573-145.602 95.45-225.556 32.616-138.147-5.027-221.086-122.531-285.152-208.902-113.896-288.425-262.149-247.991-462.348 42.493-210.397 194.459-346.97 415.233-372.579 22.545-2.615 45.4-2.527 68.113-3.694z" transform="translate(-37.922 2164.618)"/>
                        <path d="M1242.077 223.817c424.842-22.752 696.979 327.057 586.3 753.219-48.521 186.812-162.61 334.38-293.05 469.335-117.593 121.666-254.633 219.607-404.4 299.042-16.068 8.52-32.058 17.379-48.764 24.464-34.177 14.49-71.375 27.64-102.204-1.438-32.298-30.47-17.486-67.421-.306-100.5 16.762-32.267 36.035-63.226 54.15-94.794 40.935-71.34 76.574-145.601 95.45-225.555 32.615-138.147-5.027-221.086-122.53-285.152C797.82 948.54 718.297 800.288 758.73 600.09c42.493-210.397 194.459-346.97 415.233-372.58 22.545-2.614 45.4-2.526 68.113-3.693z" transform="translate(-37.922 2164.618)"/>
                    </g>
                </g>
            </g>
            <g filter="url(#kqmkcc7o8d)" opacity=".1">
                <g mask="url(#ateibj9icc)">
                    <g stroke="#0D1D2A" stroke-width="6">
                        <path d="M1564.077 1.817c424.842-22.752 696.979 327.057 586.3 753.219-48.521 186.812-162.61 334.38-293.05 469.335-117.593 121.666-254.633 219.607-404.4 299.042-16.068 8.52-32.058 17.379-48.764 24.464-34.177 14.49-71.375 27.64-102.204-1.438-32.298-30.47-17.486-67.421-.306-100.5 16.762-32.267 36.035-63.226 54.15-94.794 40.935-71.34 76.574-145.601 95.45-225.555 32.615-138.147-5.027-221.086-122.53-285.152-208.903-113.897-288.426-262.15-247.992-462.348 42.493-210.397 194.459-346.97 415.233-372.58 22.545-2.614 45.4-2.526 68.113-3.693zM893.803 1572.086c-364.258 219.828-768.909 39.045-871.593-389.115-45.01-187.689-13.699-371.57 37.972-552.006 46.583-162.668 121.482-313.54 216.315-454.064 10.175-15.075 20.123-30.41 31.537-44.518 23.35-28.859 49.998-57.953 90.878-46.784 42.831 11.705 47.133 51.283 47.521 88.553.38 36.361-2.075 72.746-3.22 109.123-2.589 82.21.874 164.508 21.804 243.95 36.168 137.26 108.385 192.761 242.213 194.057 237.924 2.304 377.812 95.76 436.252 291.461 61.42 205.67-8.49 397.656-191.3 524.06-18.669 12.907-38.88 23.575-58.379 35.283z" transform="translate(140.078 1646.618)"/>
                    </g>
                </g>
            </g>
            <g filter="url(#12u5jehyde)" opacity=".1">
                <g mask="url(#ateibj9icc)">
                    <g stroke="#00817D" stroke-width="5.279" opacity=".938">
                        <path d="M841.472 1341.593c373.759-20.016 613.174 287.731 515.803 662.651-42.686 164.35-143.058 294.174-257.813 412.901-103.454 107.036-224.016 193.201-355.774 263.084-14.136 7.497-28.204 15.29-42.902 21.523-30.067 12.749-62.792 24.317-89.914-1.265-28.415-26.805-15.385-59.315-.269-88.414 14.746-28.389 31.702-55.626 47.639-83.397 36.013-62.761 67.366-128.094 83.973-198.434 28.694-121.537-4.423-194.502-107.798-250.865-183.784-100.202-253.745-230.629-218.171-406.755 37.382-185.098 171.076-305.25 365.303-327.779 19.834-2.3 39.941-2.223 59.923-3.25zM434.18.924c373.759-20.016 613.175 287.73 515.803 662.651-42.686 164.35-143.058 294.173-257.812 412.901-103.455 107.036-224.017 193.201-355.775 263.084-14.136 7.497-28.204 15.29-42.902 21.523-30.067 12.749-62.792 24.317-89.914-1.265-28.414-26.805-15.383-59.315-.268-88.414 14.745-28.388 31.701-55.626 47.638-83.397 36.014-62.76 67.366-128.095 83.974-198.434 28.693-121.537-4.424-194.502-107.799-250.865C43.342 638.506-26.619 508.08 8.954 331.954 46.337 146.855 180.03 26.703 374.258 4.174c19.834-2.3 39.94-2.223 59.923-3.25zM2030.457 1371.766c-320.46 193.395-676.455 34.35-766.792-342.327-39.598-165.121-12.052-326.892 33.407-485.633 40.98-143.109 106.873-275.84 190.304-399.466 8.951-13.263 17.703-26.754 27.745-39.166 20.542-25.388 43.987-50.983 79.95-41.158 37.681 10.298 41.466 45.116 41.808 77.906.333 31.988-1.825 63.999-2.834 96.002-2.277 72.324.77 144.727 19.184 214.615 31.819 120.756 95.352 169.584 213.088 170.725 209.315 2.027 332.383 84.246 383.797 256.415 54.033 180.94-7.471 349.841-168.299 461.045-16.423 11.356-34.206 20.742-51.358 31.042z" transform="translate(-607 -941)"/>
                        <path d="M1263.58 2978.207c-320.46 193.395-676.454 34.35-766.791-342.328-39.598-165.121-12.052-326.892 33.407-485.632 40.98-143.108 106.875-275.84 190.305-399.467 8.951-13.262 17.703-26.754 27.745-39.165 20.542-25.389 43.986-50.984 79.95-41.158 37.681 10.297 41.466 45.116 41.807 77.906.333 31.988-1.825 63.999-2.834 96.002-2.276 72.323.77 144.726 19.184 214.615 31.819 120.756 95.352 169.584 213.089 170.724 209.314 2.028 332.383 84.246 383.795 256.415 54.034 180.94-7.469 349.842-168.298 461.046-16.423 11.356-34.205 20.74-51.358 31.042z" transform="translate(-607 -941)"/>
                    </g>
                </g>
            </g>
        </g>
    </g>
</svg>
