<?xml version="1.0" encoding="UTF-8"?>
<svg width="1440px" height="4958px" viewBox="0 0 1440 4958" version="1.1" xmlns="http://www.w3.org/2000/svg" xmlns:xlink="http://www.w3.org/1999/xlink">
    <title>Borders</title>
    <defs>
        <filter id="filter-1">
            <feColorMatrix in="SourceGraphic" type="matrix" values="0 0 0 0 0.050980 0 0 0 0 0.113725 0 0 0 0 0.164706 0 0 0 1.000000 0"></feColorMatrix>
        </filter>
        <rect id="path-2" x="0" y="0" width="1440" height="4958"></rect>
    </defs>
    <g id="MOBILE" stroke="none" stroke-width="1" fill="none" fill-rule="evenodd">
        <g id="Borders" filter="url(#filter-1)">
            <g>
                <mask id="mask-3" fill="white">
                    <use xlink:href="#path-2"></use>
                </mask>
                <g id="Mask"></g>
                <g id="Border" mask="url(#mask-3)" stroke="#00817D">
                    <g transform="translate(-422.000000, -875.000000)">
                        <path d="M897.973255,3956.80955 C908.909458,3955.66598 920.067361,3957.82096 931.342192,3965.28488 C943.773921,3973.51626 949.961793,3983.72937 952.251926,3994.94956 C955.313223,4009.94795 951.568349,4026.6383 946.686288,4042.70886 L946.686288,4042.70886 L946.122657,4044.54515 L945.553046,4046.3667 L945.263922,4047.28004 C940.453469,4062.41953 935.041122,4077.36729 929.477497,4092.26379 L929.477497,4092.26379 L927.079667,4098.65975 L920.915875,4115.00828 C918.370217,4121.77022 915.839922,4128.53717 913.365247,4135.32612 L913.365247,4135.32612 L911.917145,4139.31746 L910.482662,4143.30922 C910.00611,4144.64186 909.53169,4145.9752 909.058026,4147.31335 L909.058026,4147.31335 L907.649473,4151.3137 C886.097185,4212.85172 869.419634,4275.87967 865.484816,4340.90989 C861.818038,4401.52008 870.847745,4448.10605 893.995105,4484.27642 C917.406765,4520.85978 955.291138,4546.86254 1009.46517,4565.78348 L1009.46517,4565.78348 L1012.72052,4566.90531 C1108.8649,4599.59464 1179.10763,4644.16029 1224.6616,4702.40513 C1270.12759,4760.53748 1290.93459,4832.27093 1288.51002,4919.23675 C1285.95882,5010.78138 1257.72713,5090.80087 1207.36079,5154.62767 C1157.00671,5218.43892 1084.5476,5266.04817 993.620383,5292.87488 C982.471189,5296.16448 971.086386,5298.64964 959.675428,5301.03894 L959.675428,5301.03894 L955.082469,5301.99687 C948.820283,5303.30021 942.739506,5304.56593 936.68363,5305.93748 C759.579151,5346.45828 600.993893,5303.11911 490.578905,5202.71467 C380.100727,5102.25277 317.911373,4944.74147 333.447531,4757.25627 C347.100282,4592.53375 421.873533,4451.37517 512.220091,4318.45188 C592.930304,4199.70366 693.142155,4097.81215 806.596546,4009.44837 L806.596546,4009.44837 L813.266522,4004.26738 L819.698918,3999.26006 L822.921815,3996.76501 C830.940831,3990.58031 839.054524,3984.52422 847.529973,3979.06198 L847.529973,3979.06198 L849.939186,3977.51702 L851.550212,3976.49399 L853.171705,3975.47433 L854.7929,3974.46642 L856.418837,3973.46871 C869.735414,3965.35562 883.652419,3958.30705 897.973255,3956.80955 Z" id="Path" stroke-width="5.27854985" transform="translate(809.893700, 4638.773706) rotate(22.000000) translate(-809.893700, -4638.773706) "></path>
                        <path d="M569.524181,2763.77038 C580.460384,2762.62681 591.618287,2764.78179 602.893117,2772.24571 C615.324846,2780.47709 621.512719,2790.6902 623.802851,2801.91039 C626.864148,2816.90878 623.119274,2833.59913 618.237213,2849.66969 L618.237213,2849.66969 L617.673583,2851.50598 L617.103971,2853.32753 L616.814847,2854.24087 C612.004395,2869.38036 606.592047,2884.32812 601.028422,2899.22462 L601.028422,2899.22462 L598.630592,2905.62058 L592.466801,2921.96911 C589.921143,2928.73105 587.390847,2935.498 584.916172,2942.28695 L584.916172,2942.28695 L583.46807,2946.27829 L582.033587,2950.27005 C581.557036,2951.60269 581.082615,2952.93603 580.608951,2954.27418 L580.608951,2954.27418 L579.200398,2958.27453 C557.648111,3019.81255 540.970559,3082.8405 537.035742,3147.87072 C533.368963,3208.48091 542.398671,3255.06688 565.546031,3291.23725 C588.957691,3327.82061 626.842064,3353.82337 681.016096,3372.74431 L681.016096,3372.74431 L684.271446,3373.86614 C780.415821,3406.55547 850.658557,3451.12112 896.212525,3509.36596 C941.678516,3567.49831 962.485512,3639.23176 960.060949,3726.19758 C957.509749,3817.74221 929.278058,3897.7617 878.911712,3961.5885 C828.557634,4025.39975 756.098528,4073.009 665.171309,4099.83571 C654.022115,4103.12531 642.637312,4105.61047 631.226353,4107.99977 L631.226353,4107.99977 L626.633395,4108.9577 C620.371209,4110.26104 614.290432,4111.52676 608.234555,4112.89831 C431.130076,4153.41911 272.544818,4110.07994 162.129831,4009.6755 C51.6516522,3909.2136 -10.537702,3751.7023 4.99845592,3564.2171 C18.6512069,3399.49458 93.4244585,3258.336 183.771016,3125.41271 C264.481229,3006.66449 364.693081,2904.77298 478.147472,2816.4092 L478.147472,2816.4092 L484.817447,2811.22821 L491.249843,2806.22089 L494.47274,2803.72584 C502.491756,2797.54113 510.605449,2791.48505 519.080898,2786.02281 L519.080898,2786.02281 L521.490111,2784.47785 L523.101137,2783.45482 L524.72263,2782.43516 L526.343826,2781.42725 L527.969762,2780.42954 C541.286339,2772.31645 555.203344,2765.26788 569.524181,2763.77038 Z" id="Path" stroke-width="5.27854985"></path>
                        <path d="M1414.23344,2628.1407 C1595.65412,2618.42472 1744.52188,2688.18041 1836.19111,2805.94792 C1927.91283,2923.78287 1962.32189,3089.5938 1915.03178,3271.68073 C1873.48119,3431.66054 1775.72479,3557.99486 1664.02856,3673.55898 C1564.24499,3776.79794 1448.12035,3860.10198 1321.25574,3927.81799 L1321.25574,3927.81799 L1313.79973,3931.78512 L1306.60382,3935.62344 C1296.46481,3941.01649 1286.26631,3946.31157 1275.73651,3950.77685 L1275.73651,3950.77685 L1273.98054,3951.51843 L1272.2205,3952.25486 L1270.45095,3952.98686 L1268.68622,3953.70706 L1267.79972,3954.06468 L1266.02574,3954.77109 C1265.73029,3954.88765 1265.43466,3955.00372 1265.14776,3955.1158 L1265.14776,3955.1158 L1263.36399,3955.80513 L1261.58184,3956.47805 C1247.98459,3961.54789 1234.11417,3965.24499 1220.75319,3963.97752 C1210.30788,3962.98663 1200.19689,3958.91334 1190.80539,3950.05537 C1180.22575,3940.07496 1175.82001,3929.25088 1175.29423,3918.09991 C1174.60145,3903.40745 1180.49074,3888.22295 1187.61408,3873.7173 L1187.61408,3873.7173 L1188.46697,3871.9955 C1188.60947,3871.71021 1188.75239,3871.4252 1188.89229,3871.14726 L1188.89229,3871.14726 L1189.76085,3869.43405 L1190.63414,3867.73379 C1190.78036,3867.45079 1190.92681,3867.16811 1191.07345,3866.88579 C1198.89565,3851.82667 1207.35721,3837.10045 1215.94714,3822.44363 L1215.94714,3822.44363 L1219.39697,3816.57007 L1224.78778,3807.41548 C1229.06375,3800.15224 1233.32911,3792.88341 1237.52443,3785.57335 L1237.52443,3785.57335 L1239.63212,3781.88748 L1241.72647,3778.19888 C1242.0749,3777.58297 1242.42284,3776.9668 1242.77238,3776.34662 L1242.77238,3776.34662 L1244.85101,3772.64452 L1246.91497,3768.93974 C1247.25826,3768.32106 1247.60101,3767.7021 1247.94546,3767.07878 L1247.94546,3767.07878 L1249.98975,3763.36395 C1279.95442,3708.68218 1305.45176,3651.82325 1319.77196,3591.17061 C1333.72379,3532.0731 1332.77324,3484.62881 1316.1352,3445.03961 C1299.30782,3404.99987 1266.41616,3372.91664 1216.25693,3345.02759 L1216.25693,3345.02759 L1213.2407,3343.36696 C1124.0838,3294.75702 1062.47385,3238.86356 1027.52348,3173.70289 C992.640137,3108.66717 984.374457,3034.43585 1001.59834,2949.15769 C1019.728,2859.39028 1061.19615,2785.35949 1121.71232,2731.05976 C1182.21385,2676.77316 1261.73269,2642.22181 1355.90345,2631.29889 C1366.67606,2630.04913 1377.53199,2629.52453 1388.39865,2629.12864 L1388.39865,2629.12864 L1395.43205,2628.88467 L1400.12424,2628.72462 C1404.82876,2628.56088 1409.53165,2628.38199 1414.23344,2628.1407 Z" id="Path" stroke-width="5.27854985"></path>
                        <path d="M1333.00012,1465.96402 C1344.19253,1461.86373 1353.8428,1462.29271 1362.35796,1465.62633 C1373.25495,1469.89241 1382.28292,1478.78736 1390.35007,1488.7504 L1390.35007,1488.7504 L1391.40451,1490.06553 L1391.91964,1490.71718 L1392.95222,1492.04077 L1393.97419,1493.37231 L1394.98751,1494.71225 C1395.1558,1494.93632 1395.32369,1495.16062 1395.48668,1495.37902 L1395.48668,1495.37902 L1396.4929,1496.73562 L1397.48663,1498.09022 L1397.48663,1498.09022 L1397.98079,1498.76879 C1406.70082,1510.77131 1414.91378,1523.14148 1423.0205,1535.58555 L1423.0205,1535.58555 L1426.76651,1541.34945 L1432.38072,1550.00813 L1436.13089,1555.77641 C1438.63842,1559.62365 1441.15648,1563.4633 1443.69684,1567.28691 C1444.38606,1568.32424 1445.07679,1569.36054 1445.77135,1570.39914 L1445.77135,1570.39914 L1447.85318,1573.50177 L1449.94233,1576.59415 C1450.29175,1577.10956 1450.64158,1577.62468 1450.99434,1578.14316 L1450.99434,1578.14316 L1453.10113,1581.22856 L1455.2157,1584.30259 C1455.56946,1584.81493 1455.92366,1585.32693 1456.28105,1585.84255 L1456.28105,1585.84255 L1458.41312,1588.90662 L1459.48547,1590.43862 L1461.63583,1593.49217 L1463.79468,1596.5326 C1465.6013,1599.06632 1467.4201,1601.59029 1469.25517,1604.10827 L1469.25517,1604.10827 L1471.45639,1607.115 C1473.66762,1610.12162 1475.89785,1613.11248 1478.15212,1616.09112 L1478.15212,1616.09112 L1480.40593,1619.0544 C1505.34978,1651.6869 1532.80035,1682.16622 1564.4059,1708.53256 C1605.49226,1742.8055 1643.26538,1760.7304 1681.02051,1763.2085 C1719.21056,1765.71514 1757.46023,1752.43622 1799.20544,1723.87991 L1799.20544,1723.87991 L1801.69954,1722.15848 C1874.95366,1671.1521 1943.10972,1644.65931 2008.08103,1642.77986 C2072.91114,1640.90449 2134.51113,1663.57337 2194.78352,1710.61172 C2258.24089,1760.13402 2300.15903,1821.82227 2319.07704,1890.73745 C2337.9915,1959.63971 2333.91176,2035.74083 2305.50063,2114.07858 C2301.96583,2123.82402 2297.71859,2133.30989 2293.39674,2142.76704 L2293.39674,2142.76704 L2291.52887,2146.8469 C2289.34172,2151.62101 2287.15793,2156.39644 2285.05481,2161.20757 C2221.40561,2307.69359 2108.05687,2397.36067 1979.42061,2423.17244 C1850.70351,2449.00042 1706.78266,2410.88993 1582.16667,2302.14417 C1472.6487,2206.56906 1411.69786,2080.00157 1364.69454,1946.70565 C1322.69791,1827.61177 1302.81098,1703.49846 1299.40813,1577.06379 L1299.40813,1577.06379 L1299.26071,1571.25736 L1299.04592,1563.17087 C1298.77885,1552.84486 1298.59921,1542.50826 1299.24022,1532.24089 L1299.24022,1532.24089 L1299.34704,1530.56837 L1299.45988,1528.88957 L1299.57922,1527.21517 L1299.70652,1525.54145 C1299.72846,1525.26277 1299.75077,1524.98409 1299.77284,1524.71346 L1299.77284,1524.71346 L1299.91484,1523.03568 L1300.067,1521.36876 C1301.32223,1508.13835 1303.68894,1495.11946 1310.01421,1484.5994 C1314.87383,1476.51699 1322.10787,1469.95486 1333.00012,1465.96402 Z" id="Path" stroke-width="5.27854985"></path>
                        <path d="M1042.72943,2275.97404 C1053.71432,2270.31902 1066.15872,2268.17967 1080.77135,2272.17205 C1096.10527,2276.36255 1105.55084,2284.80714 1111.33273,2295.58152 C1119.25064,2310.33632 1120.44475,2329.28726 1120.63497,2347.55968 C1120.84387,2367.65379 1120.06664,2387.75692 1119.21177,2407.86085 L1119.21177,2407.86085 L1118.75573,2418.52979 C1118.40267,2426.83701 1118.06347,2435.14424 1117.80155,2443.4511 C1115.51755,2516.03044 1118.59236,2588.68713 1137.07137,2658.82189 C1153.07263,2719.54775 1177.08569,2762.21684 1211.72903,2789.97264 C1246.7826,2818.05712 1292.77658,2830.93251 1352.68686,2831.51268 C1456.72685,2832.52062 1539.36451,2853.38675 1602.35904,2895.47364 C1665.23564,2937.48174 1708.47247,3000.62767 1733.97895,3086.04398 C1760.82868,3175.954 1758.99205,3262.87649 1730.42586,3341.13245 C1701.86692,3419.36857 1646.6045,3488.92032 1566.70906,3544.16317 C1555.55053,3551.87873 1543.7601,3558.67727 1531.97057,3565.47869 C1526.45697,3568.6595 1520.94329,3571.84052 1515.48788,3575.11663 C1356.11507,3671.29667 1187.8957,3679.92944 1048.27118,3617.59522 C908.568087,3555.22591 797.577665,3421.86702 752.626017,3234.43279 C713.136083,3069.76213 740.672055,2908.43936 786.003864,2750.14298 C826.908242,2607.30168 892.685274,2474.82103 975.959092,2351.42636 C977.297227,2349.44382 978.630906,2347.45615 979.965089,2345.46773 C987.513518,2334.21779 995.075479,2322.94134 1003.56821,2312.44485 C1003.76052,2312.20717 1003.95308,2311.96945 1004.1459,2311.73173 L1005.30594,2310.30557 C1016.35687,2296.76133 1028.29714,2283.40379 1042.72943,2275.97404 Z" id="Stroke-28" stroke-width="5.27854985" transform="translate(1243.345687, 2963.736117) rotate(27.000000) translate(-1243.345687, -2963.736117) "></path>
                        <path d="M1368.33401,8.49916108 C1379.31895,2.84411671 1391.76327,0.704570125 1406.37541,4.69655554 C1421.70933,8.88741783 1431.15492,17.3320459 1436.93688,28.1063451 C1444.85493,42.8610885 1446.04926,61.8118051 1446.23997,80.0842072 C1446.44887,100.178316 1445.67164,120.281446 1444.81677,140.385376 L1444.81677,140.385376 L1444.36073,151.054312 C1444.00767,159.361535 1443.66847,167.668764 1443.40655,175.975591 C1441.12167,248.555824 1444.19736,321.212533 1462.67637,391.34641 C1478.67762,452.072226 1502.69065,494.741295 1537.33395,522.497213 C1572.38753,550.581841 1618.38153,563.457461 1678.29187,564.038085 C1782.33155,565.045585 1864.9688,585.911587 1927.96326,627.998335 C1990.84017,670.00655 2034.07741,733.152832 2059.58483,818.569367 C2086.43408,908.479252 2084.59705,995.401385 2056.03078,1073.65703 C2027.47166,1151.89309 1972.20919,1221.44476 1892.31398,1276.68774 C1881.15408,1284.40486 1869.3617,1291.20431 1857.57073,1298.00635 C1852.05864,1301.1862 1846.54657,1304.36619 1841.09288,1307.64115 C1681.72022,1403.82154 1513.50102,1412.45438 1373.87658,1350.12036 C1234.1733,1287.75113 1123.18271,1154.39217 1078.23102,966.958189 C1038.74108,802.287531 1066.27706,640.964756 1111.60887,482.667508 C1152.51324,339.826214 1218.28939,207.345571 1301.56526,83.9500315 L1301.56526,83.9500315 L1302.73388,82.2156788 L1305.06356,78.7473076 L1307.39185,75.2781159 C1314.3405,64.9339304 1321.36274,54.6222369 1329.1723,44.9694105 C1340.71104,30.7088239 1353.14199,16.3200137 1368.33401,8.49916108 Z" id="Stroke-25" stroke-width="5.27854985"></path>
                        <path d="M654.472283,1275.59331 C1028.23056,1255.57705 1267.64623,1563.32442 1170.27458,1938.24398 C1127.58871,2102.59339 1027.21708,2232.41756 912.462287,2351.14535 C809.007988,2458.18114 688.44591,2544.34643 556.688027,2614.22915 C542.55207,2621.72645 528.483855,2629.51935 513.785733,2635.75244 C483.719113,2648.50101 450.993864,2660.06896 423.871795,2634.48734 C395.457361,2607.68199 408.487461,2575.17228 423.603468,2546.07251 C438.349097,2517.68447 455.304679,2490.44716 471.241501,2462.67583 C507.255287,2399.91475 538.608114,2334.58214 555.215311,2264.24194 C583.908629,2142.70509 550.791887,2069.73969 447.416766,2013.3771 C263.633496,1913.17527 193.672476,1782.74846 229.245504,1606.62172 C266.628194,1421.5241 400.321545,1301.37198 594.549305,1278.84313 C614.383456,1276.54257 634.490333,1276.61998 654.472283,1275.59331 Z" id="Border" stroke-width="5.27854985"></path>
                        <path d="M1369.33084,4966.49916 C1380.31577,4960.84412 1392.7601,4958.70457 1407.37224,4962.69656 C1422.70616,4966.88742 1432.15174,4975.33205 1437.93371,4986.10635 C1445.85176,5000.86109 1447.04608,5019.81181 1447.23679,5038.08421 C1447.44569,5058.17832 1446.66846,5078.28145 1445.8136,5098.38538 L1445.8136,5098.38538 L1445.35755,5109.05431 C1445.0045,5117.36154 1444.6653,5125.66876 1444.40338,5133.97559 C1442.1185,5206.55582 1445.19419,5279.21253 1463.67319,5349.34641 C1479.67444,5410.07223 1503.68748,5452.74129 1538.33078,5480.49721 C1573.38436,5508.58184 1619.37836,5521.45746 1679.2887,5522.03808 C1783.32837,5523.04558 1865.96562,5543.91159 1928.96008,5585.99834 C1991.837,5628.00655 2035.07423,5691.15283 2060.58165,5776.56937 C2087.4309,5866.47925 2085.59388,5953.40139 2057.02761,6031.65703 C2028.46849,6109.89309 1973.20602,6179.44476 1893.31081,6234.68774 C1882.1509,6242.40486 1870.35852,6249.20431 1858.56756,6256.00635 C1853.05546,6259.1862 1847.5434,6262.36619 1842.0897,6265.64115 C1682.71705,6361.82154 1514.49784,6370.45438 1374.87341,6308.12036 C1235.17013,6245.75113 1124.17953,6112.39217 1079.22784,5924.95819 C1039.73791,5760.28753 1067.27388,5598.96476 1112.60569,5440.66751 C1153.51007,5297.82621 1219.28621,5165.34557 1302.56103,5041.9516 C1303.89305,5039.9778 1305.22067,5037.99895 1306.54878,5036.01937 C1314.1026,5024.76023 1321.66979,5013.47481 1330.16913,5002.96941 C1330.36144,5002.73173 1330.554,5002.49402 1330.74682,5002.25631 L1331.90686,5000.8302 C1342.95786,4987.28636 1354.89842,4973.92897 1369.33084,4966.49916 Z" id="Stroke-25" stroke-width="5.27854985"></path>
                        <path d="M1814.15449,3813.43435 C2238.99649,3790.68235 2511.13349,4140.49135 2400.45449,4566.65335 C2351.93349,4753.46535 2237.84449,4901.03335 2107.40549,5035.98835 C1989.81149,5157.65435 1852.77149,5255.59535 1703.00549,5335.03035 C1686.93649,5343.55135 1670.94649,5352.40935 1654.24049,5359.49435 C1620.06349,5373.98535 1582.86549,5387.13435 1552.03649,5358.05635 C1519.73849,5327.58735 1534.55049,5290.63535 1551.73049,5257.55735 C1568.49249,5225.28935 1587.76549,5194.33035 1605.88049,5162.76235 C1646.81549,5091.42335 1682.45449,5017.16135 1701.33149,4937.20735 C1733.94549,4799.06035 1696.30349,4716.12135 1578.80049,4652.05535 C1369.89749,4538.15835 1290.37449,4389.90535 1330.80849,4189.70735 C1373.30149,3979.31035 1525.26749,3842.73735 1746.04149,3817.12835 C1768.58649,3814.51335 1791.44149,3814.60135 1814.15449,3813.43435 Z" id="Stroke-13" stroke-width="6"></path>
                    </g>
                </g>
            </g>
        </g>
    </g>
</svg>