<?xml version="1.0" encoding="UTF-8"?>
<svg width="1440px" height="4958px" viewBox="0 0 1440 4958" version="1.1" xmlns="http://www.w3.org/2000/svg" xmlns:xlink="http://www.w3.org/1999/xlink">
    <title>Shapes</title>
    <defs>
        <filter id="filter-1">
            <feColorMatrix in="SourceGraphic" type="matrix" values="0 0 0 0 0.050980 0 0 0 0 0.113725 0 0 0 0 0.164706 0 0 0 1.000000 0"></feColorMatrix>
        </filter>
        <rect id="path-2" x="0" y="0" width="1440" height="4958"></rect>
    </defs>
    <g id="MOBILE" stroke="none" stroke-width="1" fill="none" fill-rule="evenodd">
        <g id="Shapes" filter="url(#filter-1)">
            <g>
                <mask id="mask-3" fill="white">
                    <use xlink:href="#path-2"></use>
                </mask>
                <g id="Mask"></g>
                <path d="M636.745354,4689.19107 C714.084907,4812.81294 735.84221,4952.04525 742.188786,5093.70394 C747.910735,5221.41229 730.516153,5347.47726 696.355138,5470.91703 C696.006167,5472.17826 695.659215,5473.4407 695.31293,5474.70376 L694.274718,5478.49427 C691.331114,5489.23613 688.337901,5499.98223 684.464325,5510.38298 C674.673495,5536.66488 662.577698,5563.90836 630.612559,5565.73122 C597.12016,5567.63853 584.52906,5540.3238 575.295116,5513.72079 C566.287271,5487.76792 559.30111,5461.11564 551.381526,5434.78447 C533.480204,5375.2785 511.224958,5317.16167 477.144001,5265.29024 C418.254739,5175.66486 353.191334,5153.26357 257.021434,5184.49235 C86.0500844,5240.01302 -36.605819,5206.6869 -125.49044,5080.55419 C-218.904057,4947.99573 -214.96274,4793.6826 -114.393169,4659.21594 C-107.695722,4650.26019 -100.298543,4641.82943 -92.8695575,4633.42216 L-89.8978504,4630.05932 C-86.9276134,4626.69535 -83.9665365,4623.32444 -81.057367,4619.9145 C127.029226,4374.92908 460.311585,4407.18542 636.745354,4689.19107 Z M991.399506,4542.83936 C999.180675,4559.4187 1006.10007,4576.40117 1012.99783,4593.39445 L1015.58512,4599.76667 C1018.17468,4606.13786 1020.77596,4612.50369 1023.43327,4618.84344 C1047.45595,4676.15266 1075.66364,4731.62494 1114.98004,4779.65007 C1182.91409,4862.62887 1249.96311,4878.10734 1342.34125,4836.99711 C1506.57365,4763.91031 1632.04039,4784.23273 1733.62256,4900.38546 C1840.38035,5022.4528 1852.58964,5176.33309 1766.62581,5320.57474 C1757.84758,5335.30453 1747.30544,5348.9795 1737.57971,5363.14537 C1556.23953,5628.53942 1221.41144,5631.29482 1016.46822,5369.27464 C926.63082,5254.41516 890.439322,5118.21889 869.320724,4977.99862 C850.282754,4851.5879 854.405302,4724.39597 875.476393,4598.06179 C877.737372,4584.50736 879.760816,4570.84647 883.177797,4557.56916 C890.168357,4530.40838 899.349514,4502.05025 930.949553,4496.89575 C964.058377,4491.49755 979.435673,4517.34749 991.399506,4542.83936 Z M566.3502,3074.0451 C598.1432,3095.0961 591.0232,3128.5341 581.3302,3159.0401 C574.783738,3179.64318 567.126762,3199.89254 559.4828,3220.14688 L556.936836,3226.899 C554.394437,3233.65229 551.867354,3240.41056 549.3972,3247.1871 C525.2082,3313.5491 505.9312,3381.6091 501.6702,3452.0301 C494.3092,3573.7041 538.3112,3638.3711 647.1262,3675.3691 C840.5792,3741.1451 929.5872,3854.9451 924.6992,4030.2711 C919.5642,4214.5301 810.9812,4352.3571 627.9182,4406.3671 C616.7012,4409.6767 605.24768,4412.17918 593.765216,4414.58345 L589.171179,4415.5416 C583.04505,4416.81664 576.91856,4418.09062 570.8232,4419.4711 C214.6632,4500.9591 -66.8578,4244.8241 -35.6318,3867.9991 C-21.9408,3702.8151 52.9822,3561.2341 143.5882,3427.9291 C225.2702,3307.7511 326.8832,3204.8001 441.9772,3115.6461 C454.3242,3106.0801 466.5572,3096.2431 479.6562,3087.8011 C506.4532,3070.5331 536.0042,3053.9561 566.3502,3074.0451 Z M1746.90279,3397.35404 C1779.77974,3559.81138 1747.27208,3716.66091 1697.39733,3869.93257 C1652.43451,4008.10928 1583.52999,4135.29609 1497.83508,4252.98843 C1488.64196,4265.61535 1479.63397,4278.47129 1469.40602,4290.22887 C1448.48151,4314.27965 1424.72006,4338.4335 1389.97926,4327.59605 C1353.57899,4316.2373 1351.09994,4282.13799 1351.90881,4250.14002 C1352.69835,4218.92363 1355.91888,4187.77101 1358.01849,4156.58766 C1362.75833,4086.11344 1362.30924,4015.3774 1346.78059,3946.55887 C1319.94697,3827.65074 1259.67003,3777.80358 1144.85576,3772.59022 C940.736385,3763.32119 823.545158,3678.82936 779.388361,3509.0831 C732.980479,3330.69059 798.862338,3168.06634 959.627177,3065.18886 C976.043249,3054.6833 993.716757,3046.1468 1010.80982,3036.69624 C1330.16051,2859.19938 1671.89848,3026.75159 1746.90279,3397.35404 Z M182.3502,1835.0451 C214.1432,1856.0961 207.0232,1889.5341 197.3302,1920.0401 C190.783738,1940.64318 183.126762,1960.89254 175.4828,1981.14688 L172.936836,1987.899 C170.394437,1994.65229 167.867354,2001.41056 165.3972,2008.1871 C141.2082,2074.5491 121.9312,2142.6091 117.6702,2213.0301 C110.3092,2334.7041 154.3112,2399.3711 263.1262,2436.3691 C456.5792,2502.1451 545.5872,2615.9451 540.6992,2791.2711 C535.5642,2975.5301 426.9812,3113.3571 243.9182,3167.3671 C232.7012,3170.6767 221.24768,3173.17918 209.765216,3175.58345 L205.171179,3176.5416 C199.04505,3177.81664 192.91856,3179.09062 186.8232,3180.4711 C-169.3368,3261.9591 -450.8578,3005.8241 -419.6318,2628.9991 C-405.9408,2463.8151 -331.0178,2322.2341 -240.4118,2188.9291 C-158.7298,2068.7511 -57.1168,1965.8001 57.9772,1876.6461 C70.3242,1867.0801 82.5572,1857.2431 95.6562,1848.8011 C122.4532,1831.5331 152.0042,1814.9561 182.3502,1835.0451 Z M1495.5863,2337.3442 C1453.9193,2497.7722 1355.9433,2624.4972 1243.9263,2740.3932 C1142.9413,2844.8752 1025.2553,2928.9842 896.6403,2997.1992 C882.8423,3004.5182 869.1103,3012.1242 854.7633,3018.2082 C825.4133,3030.6522 793.4683,3041.9452 766.9943,3016.9752 C739.2573,2990.8092 751.9773,2959.0742 766.7313,2930.6692 C776.142762,2912.55047 786.476372,2894.91184 796.851337,2877.29432 L800.513372,2871.0765 C804.784404,2863.82166 809.044877,2856.56124 813.2333,2849.2632 C848.3873,2787.9992 878.9923,2724.2252 895.2033,2655.5642 C923.2113,2536.9272 890.8863,2465.7012 789.9773,2410.6842 C610.5793,2312.8732 542.2873,2185.5592 577.0113,2013.6352 C613.5023,1832.9532 744.0063,1715.6682 933.5993,1693.6772 C952.9593,1691.4312 972.5863,1691.5062 992.0923,1690.5052 C1356.9323,1670.9662 1590.6343,1971.3692 1495.5863,2337.3442 Z M777.597123,1145.73558 C741.802397,1283.55236 657.635919,1392.41717 561.407076,1491.97766 C474.654989,1581.73324 373.556683,1653.98779 263.069597,1712.58849 L261.291873,1713.53317 L261.291873,1713.53317 L257.737243,1715.42903 C247.664853,1720.80626 237.570374,1726.19409 227.09452,1730.63673 C201.881527,1741.32668 174.439226,1751.02777 151.695714,1729.57663 C127.86834,1707.0988 138.795818,1679.83773 151.470496,1655.43499 C159.713831,1639.56533 168.781011,1624.1242 177.869436,1608.69324 L181.277023,1602.90629 C184.682472,1597.11818 188.076799,1591.32415 191.417681,1585.50213 C221.617145,1532.87323 247.908722,1478.08804 261.835296,1419.10464 C285.895806,1317.18816 258.126235,1256.00185 171.44013,1208.73859 C17.3267084,1124.71464 -41.3399744,1015.34308 -11.5100094,867.651898 C19.8375386,712.43614 131.946899,611.68182 294.818314,592.78989 C311.451025,590.86058 328.311593,590.925682 345.06747,590.064398 C658.485766,573.27949 859.249251,831.343393 777.597123,1145.73558 Z M978.116035,562.217502 C994.263119,584.442836 1008.67884,607.923585 1023.89514,630.826333 C1058.28313,682.583394 1096.43825,731.747808 1144.09652,771.505845 C1226.44805,840.200893 1295.21172,842.770667 1378.1914,784.99254 C1525.71368,682.273719 1652.76309,678.59633 1774.40727,773.531049 C1902.25023,873.30004 1943.23113,1022.12523 1885.98174,1179.97851 C1882.42278,1189.79057 1878.14865,1199.34218 1873.79647,1208.8657 L1871.92833,1212.94616 C1869.74759,1217.70627 1867.57008,1222.46766 1865.47546,1227.25936 C1737.38089,1522.06373 1409.06828,1587.85029 1158.4313,1369.1327 C1048.56444,1273.25312 987.362295,1146.31456 940.20549,1012.58337 C897.69205,892.023936 877.7796,766.332866 874.671414,638.290203 L874.622361,636.327439 L874.622361,636.327439 L874.51827,632.399857 C874.200618,620.613686 873.874102,608.80083 874.606312,597.072646 C876.354392,569.080496 880.030022,539.500383 910.092243,528.485809 C941.591989,516.946019 961.563383,539.43616 978.116035,562.217502 Z M125.277681,421.559147 C138.623614,424.827449 152.095353,427.867894 165.080586,432.267565 C191.642249,441.270132 219.234109,452.547753 222.009746,484.44515 C224.915588,517.864529 197.988825,531.265008 171.672615,541.288974 C146.000388,551.066608 119.568049,558.844551 93.484975,567.54712 C34.5394088,587.214117 -22.8876945,611.194569 -73.7192498,646.807185 C-161.548161,708.34364 -181.998143,774.04663 -147.913667,869.241757 C-87.317674,1038.48086 -116.969928,1162.07635 -240.39562,1254.68411 C-370.108064,1352.01001 -524.470457,1352.67423 -661.877268,1256.16122 C-675.909413,1246.30617 -688.756524,1234.7699 -702.155243,1224.01221 C-953.239143,1023.32703 -930.93991,689.230011 -654.322783,504.462291 C-533.063936,423.469102 -394.541592,397.568138 -253.1354,386.998721 C-125.654902,377.469179 0.872817889,391.096636 125.277681,421.559147 Z M636.745354,-268.808933 C714.084907,-145.187055 735.84221,-5.9547461 742.188786,135.703937 C747.910735,263.412292 730.516153,389.477259 696.355138,512.917027 C696.006167,514.178265 695.659215,515.4407 695.31293,516.703763 L694.274718,520.494266 C691.331114,531.236134 688.337901,541.98223 684.464325,552.382984 C674.673495,578.664884 662.577698,605.90836 630.612559,607.731219 C597.12016,609.638535 584.52906,582.323799 575.295116,555.720787 C566.287271,529.767917 559.30111,503.115639 551.381526,476.784473 C533.480204,417.278501 511.224958,359.161667 477.144001,307.290238 C418.254739,217.66486 353.191334,195.263574 257.021434,226.492355 C86.0500844,282.013022 -36.605819,248.686897 -125.49044,122.554189 C-218.904057,-10.0042736 -214.96274,-164.3174 -114.393169,-298.784058 C-107.695722,-307.739807 -100.298543,-316.170569 -92.8695575,-324.577839 L-89.8978504,-327.940682 C-86.9276134,-331.30465 -83.9665365,-334.675558 -81.057367,-338.085501 C127.029226,-583.070918 460.311585,-550.814579 636.745354,-268.808933 Z M939.468497,-461.825478 L940.364573,-461.817875 C967.099702,-461.336044 980.632056,-438.103325 991.399506,-415.160636 C999.180675,-398.581297 1006.10007,-381.598834 1012.99783,-364.605553 L1015.58512,-358.233331 C1018.17468,-351.862135 1020.77596,-345.496314 1023.43327,-339.156556 C1047.45595,-281.84734 1075.66364,-226.37506 1114.98004,-178.349934 C1159.13717,-124.413711 1202.92038,-98.9963808 1253.52873,-99.1013325 L1255.86937,-99.1242879 C1282.45216,-99.5895875 1310.93269,-107.025411 1342.34125,-121.002888 C1406.39189,-149.506741 1464.54627,-163.803051 1517.68712,-163.748202 L1521.765,-163.715675 C1603.12551,-162.498906 1672.67325,-127.306181 1733.62256,-57.6145426 C1840.38035,64.4528024 1852.58964,218.333088 1766.62581,362.574741 C1757.84758,377.304534 1747.30544,390.979497 1737.57971,405.145366 C1648.72302,535.18845 1523.01389,602.171995 1393.79083,605.844593 L1385.8751,605.990338 C1253.88266,607.100923 1118.93983,542.28473 1016.46822,411.274642 C926.63082,296.415156 890.439322,160.218893 869.320724,19.9986151 C850.282754,-106.412097 854.405302,-233.604034 875.476393,-359.938207 C877.737372,-373.492643 879.760816,-387.15353 883.177797,-400.430842 C890.168357,-427.591621 899.349514,-455.94975 930.949553,-461.104254 C933.929347,-461.590092 936.765516,-461.822819 939.468497,-461.825478 Z" id="Combined-Shape" fill="#00817D" mask="url(#mask-3)"></path>
            </g>
        </g>
    </g>
</svg>